<svg width="60" height="60" viewBox="0 0 60 60" fill="none" xmlns="http://www.w3.org/2000/svg">
<path d="M42.075 39.1C43.75 38 45.95 39.2 45.95 41.2V44.425C45.95 47.6 43.475 51 40.5 52L32.525 54.65C31.125 55.125 28.85 55.125 27.475 54.65L19.5 52C16.5 51 14.05 47.6 14.05 44.425V41.175C14.05 39.2 16.25 38 17.9 39.075L23.05 42.425C25.025 43.75 27.525 44.4 30.025 44.4C32.525 44.4 35.025 43.75 37 42.425L42.075 39.1Z" fill="url(#paint0_linear_30_97)"/>
<path d="M49.95 16.15L34.975 6.32502C32.275 4.55002 27.825 4.55002 25.125 6.32502L10.075 16.15C5.24999 19.275 5.24999 26.35 10.075 29.5L14.075 32.1L25.125 39.3C27.825 41.075 32.275 41.075 34.975 39.3L45.95 32.1L49.375 29.85V37.5C49.375 38.525 50.225 39.375 51.25 39.375C52.275 39.375 53.125 38.525 53.125 37.5V25.2C54.125 21.975 53.1 18.225 49.95 16.15Z" fill="url(#paint1_linear_30_97)"/>
<defs>
<linearGradient id="paint0_linear_30_97" x1="14.05" y1="46.8389" x2="47.0489" y2="46.8389" gradientUnits="userSpaceOnUse">
<stop stop-color="#415A77"/>
<stop offset="1" stop-color="#0D1B2A"/>
</linearGradient>
<linearGradient id="paint1_linear_30_97" x1="6.45624" y1="22.8125" x2="55.1143" y2="22.8125" gradientUnits="userSpaceOnUse">
<stop stop-color="#415A77"/>
<stop offset="1" stop-color="#0D1B2A"/>
</linearGradient>
</defs>
</svg>
